// converted from http://www.dafont.com/subatomic-tsoonami.font with http://typeface.neocracy.org/
if (_typeface_js && _typeface_js.loadFace) _typeface_js.loadFace({"glyphs":{"S":{"x_min":-6.78125,"x_max":822,"ha":1010,"o":"m 707 949 q 816 851 816 949 q 704 754 816 754 l 312 754 q 210 678 210 754 q 305 585 210 585 l 571 585 q 747 530 673 585 q 822 344 822 474 l 822 242 q 747 50 822 101 q 559 0 673 0 l 96 0 q 1 100 1 0 q 104 204 1 201 l 505 204 q 612 305 613 204 q 491 398 612 400 l 162 398 q 38 471 81 400 q -6 632 -4 542 l -6 730 q 44 886 -6 823 q 160 949 96 949 l 707 949 "},"¦":{"x_min":69.171875,"x_max":273.328125,"ha":347,"o":"m 69 619 l 69 969 q 171 1034 69 1034 q 273 969 273 1034 l 273 619 q 171 554 273 554 q 69 619 69 554 m 69 -45 l 69 303 q 171 368 69 368 q 273 303 273 368 l 273 -45 q 171 -111 273 -111 q 69 -45 69 -111 "},"/":{"x_min":-71.21875,"x_max":1082.4375,"ha":1185,"o":"m 881 1038 q 961 1082 918 1082 q 1035 1051 996 1082 q 1082 965 1082 1013 q 1052 881 1082 927 l 103 -113 q 29 -135 62 -135 q -49 -84 -19 -135 q -71 -14 -71 -48 q -32 67 -71 29 l 881 1038 "},"":{"x_min":69.171875,"x_max":549.359375,"ha":643,"o":"m 483 373 l 134 373 q 69 475 69 373 q 134 577 69 577 l 483 577 q 549 475 549 577 q 483 373 549 373 "},"y":{"x_min":-4.078125,"x_max":944.765625,"ha":1106,"o":"m 9 813 q -4 865 -4 841 q 26 932 -4 902 q 81 954 48 954 q 181 918 123 954 l 537 542 q 571 440 571 508 l 571 101 q 470 0 571 0 q 368 101 368 0 l 368 440 l 9 813 m 760 621 q 623 622 680 559 q 631 771 567 685 l 793 935 q 849 949 823 949 q 914 925 885 949 q 944 857 944 899 q 930 791 944 828 l 760 621 "},"g":{"x_min":0,"x_max":915.59375,"ha":1052,"o":"m 510 0 l 271 0 q 67 67 135 0 q 0 271 0 135 l 0 678 q 67 881 0 813 q 271 949 135 949 l 746 949 q 876 847 876 949 q 746 746 876 746 l 297 746 q 203 644 203 746 l 203 305 q 305 204 203 204 l 508 204 q 611 102 611 204 q 510 0 611 0 m 512 575 l 750 575 q 914 406 915 575 l 915 104 q 798 0 915 0 q 710 104 710 0 l 710 302 q 642 372 710 372 l 508 372 q 408 473 406 372 q 512 575 410 575 "},"":{"x_min":69.171875,"x_max":204.8125,"ha":347,"o":"m 204 847 l 204 712 q 137 644 204 644 q 69 712 69 644 l 69 847 q 137 915 69 915 q 204 847 204 915 "},"–":{"x_min":69.171875,"x_max":549.359375,"ha":643,"o":"m 483 373 l 134 373 q 69 475 69 373 q 134 577 69 577 l 483 577 q 549 475 549 577 q 483 373 549 373 "},"e":{"x_min":0,"x_max":813.875,"ha":984,"o":"m 101 949 l 712 949 q 813 847 813 949 q 712 746 813 746 l 271 746 q 203 678 203 746 l 203 271 q 271 203 203 203 l 712 203 q 813 101 813 203 q 712 0 813 0 l 101 0 q 0 101 0 0 l 0 841 q 101 949 0 949 m 406 576 l 576 576 q 712 474 712 576 q 576 373 712 373 l 406 373 q 271 474 271 373 q 406 576 271 576 "},"J":{"x_min":0,"x_max":746.046875,"ha":950,"o":"m 746 279 q 678 101 746 203 q 486 0 576 0 l 101 0 q 0 101 0 0 q 101 203 0 203 l 440 203 q 509 227 481 203 q 542 271 537 250 l 542 847 q 644 949 542 949 q 746 847 746 949 l 746 279 "},"^":{"x_min":90.203125,"x_max":693.140625,"ha":903,"o":"m 256 822 q 381 882 297 882 q 505 822 464 882 l 672 561 q 693 491 693 524 q 672 426 693 457 q 626 399 653 399 q 547 440 593 399 l 422 640 q 339 640 381 701 l 235 440 q 155 399 189 399 q 110 426 128 399 q 90 490 90 457 q 110 561 90 524 l 256 822 "},"D":{"x_min":0,"x_max":847.78125,"ha":1049,"o":"m 101 949 l 542 949 q 746 847 644 949 q 847 610 847 746 l 847 305 q 746 101 847 203 q 511 0 644 0 l 101 0 q 0 101 0 0 l 0 508 q 101 644 0 644 q 203 508 203 644 l 203 203 l 542 203 q 644 373 644 237 l 644 576 q 508 746 644 712 l 101 746 q 0 847 0 746 q 101 949 0 949 "},"ˆ":{"x_min":84.09375,"x_max":522.90625,"ha":764,"o":"m 402 1191 l 507 1060 q 522 1025 522 1042 q 507 993 522 1008 q 474 980 494 980 q 417 1000 450 980 l 341 1100 q 280 1100 311 1131 l 189 1000 q 132 980 156 980 q 99 993 112 980 q 84 1025 84 1008 q 99 1060 84 1042 l 220 1191 q 311 1221 250 1221 q 402 1191 371 1221 "},"w":{"x_min":-4.75,"x_max":1576.859375,"ha":1623,"o":"m 813 41 q 712 -4 759 -4 q 680 1 696 -4 q 622 122 621 23 l 622 829 q 725 951 624 950 l 726 951 q 828 826 825 951 l 828 408 q 865 380 830 347 l 1384 900 q 1482 951 1437 951 q 1547 921 1517 951 q 1576 856 1576 891 q 1525 756 1576 810 l 813 41 m 57 0 q -4 123 -4 22 l -4 813 q 96 949 -4 949 q 198 813 198 949 l 198 406 q 238 396 199 364 l 370 531 q 524 526 469 600 q 500 367 579 453 l 181 43 q 88 -4 135 -4 q 57 0 73 -4 "},"$":{"x_min":69.859375,"x_max":898.640625,"ha":1111,"o":"m 784 949 q 893 851 893 949 q 780 754 893 754 l 389 754 q 287 678 287 754 q 381 585 287 585 l 648 585 q 824 530 750 585 q 898 344 898 474 l 898 242 q 824 50 898 101 q 636 0 750 0 l 581 0 l 581 -84 q 497 -169 581 -169 q 412 -84 412 -169 l 412 0 l 172 0 q 78 100 78 0 q 181 204 78 201 l 582 204 q 689 305 690 204 q 567 398 689 400 l 238 398 q 115 471 158 400 q 69 632 72 542 l 69 730 q 121 886 69 823 q 237 949 173 949 l 412 949 l 412 1034 q 497 1119 412 1119 q 581 1034 581 1119 l 581 949 l 784 949 "},"\\":{"x_min":-44.09375,"x_max":1109.578125,"ha":1211,"o":"m 1070 67 q 1109 -14 1109 29 q 1087 -84 1109 -48 q 1008 -135 1057 -135 q 935 -113 975 -135 l -14 881 q -44 965 -44 926 q 3 1051 -44 1013 q 77 1082 41 1082 q 156 1038 119 1082 l 1070 67 "},"":{"x_min":69.171875,"x_max":529.6875,"ha":667,"o":"m 204 847 l 204 712 q 137 644 204 644 q 69 712 69 644 l 69 847 q 136 915 69 915 q 204 847 204 915 m 529 849 l 529 713 q 461 645 529 645 q 394 713 394 645 l 394 849 q 461 916 394 916 q 529 849 529 916 "},"’":{"x_min":69.171875,"x_max":204.8125,"ha":347,"o":"m 204 847 l 204 712 q 137 644 204 644 q 69 712 69 644 l 69 847 q 137 915 69 915 q 204 847 204 915 "},"":{"x_min":69.171875,"x_max":529.6875,"ha":667,"o":"m 204 847 l 204 712 q 137 644 204 644 q 69 712 69 644 l 69 847 q 136 915 69 915 q 204 847 204 915 m 529 849 l 529 713 q 461 645 529 645 q 394 713 394 645 l 394 849 q 461 916 394 916 q 529 849 529 916 "},"-":{"x_min":101.734375,"x_max":712.140625,"ha":1053,"o":"m 610 373 l 203 373 q 101 475 101 373 q 203 577 101 577 l 610 577 q 712 475 712 577 q 610 373 712 373 "},"Q":{"x_min":0,"x_max":962.390625,"ha":1085,"o":"m 881 472 q 779 337 881 337 q 678 472 678 337 l 678 644 q 610 746 674 746 l 271 746 q 203 644 204 746 l 203 303 q 272 207 204 207 l 414 207 q 513 101 513 203 q 411 0 513 0 l 162 0 q 50 50 101 0 q 0 175 0 101 l 0 773 q 50 898 0 847 q 162 949 101 949 l 714 949 q 830 898 779 949 q 881 779 881 847 l 881 472 m 784 4 l 499 219 q 475 356 411 282 q 627 366 539 430 l 911 151 q 962 74 962 114 q 935 14 962 45 q 859 -24 901 -24 q 784 4 824 -24 "},"M":{"x_min":-63.078125,"x_max":1517.859375,"ha":1723,"o":"m 699 904 q 800 950 754 950 q 832 944 817 950 q 890 823 891 922 l 890 116 q 788 -4 888 -4 l 786 -4 q 685 119 687 -4 l 684 537 q 647 565 682 598 l 128 46 q 30 -4 75 -4 q -33 25 -4 -4 q -63 89 -63 54 q -12 189 -63 135 l 699 904 m 1455 946 q 1517 822 1517 923 l 1517 132 q 1416 -3 1517 -3 q 1314 132 1314 -3 l 1314 539 q 1275 549 1313 581 l 1142 414 q 988 419 1043 345 q 1012 578 933 493 l 1332 902 q 1424 951 1377 951 q 1455 946 1439 951 "},"C":{"x_min":0,"x_max":914.921875,"ha":1050,"o":"m 808 0 l 305 0 q 89 88 180 0 q 0 300 0 176 l 0 660 q 89 871 0 783 q 288 950 169 950 q 316 949 302 950 l 738 949 q 843 844 843 949 q 738 738 843 738 l 347 738 q 210 607 210 738 l 210 326 q 355 210 210 210 l 808 210 q 914 106 914 210 l 914 105 q 808 0 914 0 "},"!":{"x_min":80.71875,"x_max":276.71875,"ha":389,"o":"m 267 822 l 267 383 q 182 281 267 281 q 97 383 97 281 l 97 822 q 182 924 97 924 q 267 822 267 924 m 255 18 q 178 -10 216 -10 q 105 18 141 -10 q 80 96 80 58 q 105 170 80 134 q 255 170 177 226 q 276 96 276 134 q 255 18 276 58 "},"{":{"x_min":0,"x_max":597.515625,"ha":860,"o":"m 545 -105 l 457 -105 q 261 -37 342 -105 q 180 125 180 29 l 180 304 q 151 362 180 338 q 82 385 122 385 q 0 467 0 382 q 82 559 0 552 q 151 583 122 559 q 180 640 180 606 l 180 819 q 261 983 180 914 q 457 1051 341 1051 l 545 1051 q 597 959 597 1026 q 545 877 597 891 l 446 877 q 377 853 407 877 q 349 796 349 830 l 349 752 q 350 727 350 737 q 351 708 351 716 q 328 575 351 625 q 267 472 301 514 q 343 326 321 419 q 349 148 349 299 q 377 90 349 114 q 446 67 407 67 l 545 67 q 597 -24 597 43 q 545 -105 597 -92 "},"X":{"x_min":-2.03125,"x_max":945.453125,"ha":1114,"o":"m 754 905 q 847 950 805 950 q 915 918 884 950 q 945 849 945 885 q 902 755 945 805 l 187 32 q 93 0 134 0 q 22 39 49 0 q 3 94 3 65 q 63 205 3 146 l 754 905 m 29 758 q -2 832 -2 794 q 29 908 -2 870 q 99 948 62 948 q 177 912 135 948 l 312 778 q 321 614 389 691 q 172 617 252 537 l 29 758 m 647 161 q 629 323 569 248 q 784 315 689 398 l 900 196 q 937 115 937 157 q 912 45 937 81 q 847 3 883 3 q 771 39 812 3 l 647 161 "},"#":{"x_min":0,"x_max":746.046875,"ha":987,"o":"m 67 542 q 0 611 0 543 q 67 678 0 678 l 169 678 q 203 712 200 678 l 204 780 q 266 848 202 848 l 269 848 q 339 781 336 847 l 339 712 q 356 677 339 678 q 373 610 373 677 q 339 542 373 542 q 67 542 305 542 m 440 779 q 509 847 441 847 q 577 779 577 847 l 577 712 q 611 644 577 647 l 678 643 q 746 581 746 646 l 746 579 q 678 508 744 511 l 610 508 q 576 491 576 508 q 508 474 576 474 q 440 508 440 474 q 440 779 440 542 m 678 406 q 746 338 746 406 q 678 270 746 270 l 577 270 q 543 236 546 269 l 542 168 q 481 101 545 101 l 477 101 q 406 169 409 103 l 406 237 q 389 271 406 271 q 373 339 373 271 q 406 406 373 406 q 678 406 440 406 m 305 169 q 237 101 304 101 l 236 101 q 169 168 169 101 l 171 233 q 139 298 173 295 l 69 302 q 1 368 0 299 q 67 440 2 438 l 138 437 q 170 456 172 437 q 237 474 169 474 q 305 440 305 474 q 305 169 305 406 "},"":{"x_min":84.09375,"x_max":522.90625,"ha":764,"o":"m 402 1191 l 507 1060 q 522 1025 522 1042 q 507 993 522 1008 q 474 980 494 980 q 417 1000 450 980 l 341 1100 q 280 1100 311 1131 l 189 1000 q 132 980 156 980 q 99 993 112 980 q 84 1025 84 1008 q 99 1060 84 1042 l 220 1191 q 311 1221 250 1221 q 402 1191 371 1221 "},")":{"x_min":91.5625,"x_max":431.359375,"ha":555,"o":"m 258 1051 q 431 470 431 762 q 306 -25 431 223 q 195 -101 255 -101 q 153 -93 174 -101 q 93 -10 93 -69 q 103 42 93 12 q 103 923 374 516 q 91 984 91 957 q 137 1059 91 1037 q 195 1074 167 1074 q 258 1051 229 1074 "},"}":{"x_min":69.1875,"x_max":666.703125,"ha":764,"o":"m 120 -105 q 69 -24 69 -92 q 120 67 69 43 l 219 67 q 288 90 259 67 q 316 148 316 114 q 323 326 316 299 q 398 472 345 419 q 337 575 365 514 q 315 708 315 625 q 315 727 315 716 q 316 752 316 737 l 316 796 q 288 853 316 830 q 219 877 259 877 l 120 877 q 69 959 69 891 q 120 1051 69 1026 l 208 1051 q 405 983 325 1051 q 486 819 486 914 l 486 640 q 514 583 486 606 q 583 559 544 559 q 666 467 666 552 q 583 385 666 382 q 514 362 544 385 q 486 304 486 338 l 486 125 q 405 -37 486 29 q 208 -105 324 -105 l 120 -105 "},"a":{"x_min":-52.90625,"x_max":916.953125,"ha":1068,"o":"m 457 203 l 714 203 l 712 597 l 120 42 q 46 8 81 8 q -25 52 6 8 q -52 120 -52 87 q -8 202 -52 164 l 727 902 q 825 957 781 957 q 866 954 855 957 q 916 832 916 936 l 916 143 q 748 0 916 -3 l 457 0 q 338 101 338 -4 q 457 203 338 206 "},"—":{"x_min":69.171875,"x_max":1102.109375,"ha":1219,"o":"m 961 373 l 210 373 q 69 475 69 373 q 210 577 69 577 l 961 577 q 1102 475 1102 577 q 961 373 1102 373 "},"=":{"x_min":69.171875,"x_max":824.03125,"ha":834,"o":"m 722 509 l 179 509 q 77 611 77 509 q 179 713 77 713 l 722 713 q 824 611 824 713 q 722 509 824 509 m 713 208 l 170 208 q 69 310 69 208 q 170 412 69 412 l 713 412 q 815 310 815 412 q 713 208 815 208 "},"N":{"x_min":-36.625,"x_max":930.515625,"ha":1061,"o":"m 3 746 q -36 843 -36 799 q -3 915 -36 883 q 67 948 30 948 q 153 908 107 948 l 878 223 q 930 123 930 170 q 902 56 930 88 q 826 17 868 17 q 738 53 786 17 l 3 746 m 911 841 l 911 563 q 791 428 911 428 q 671 563 671 428 l 671 841 q 791 949 671 949 q 911 841 911 949 m 90 543 q 199 399 199 543 l 199 120 q 90 0 199 0 q -19 120 -19 0 l -19 401 q 90 543 -19 543 "},"˚":{"x_min":69,"x_max":389,"ha":458,"o":"m 389 1074 q 357 1010 389 1036 q 282 984 325 984 l 178 984 q 100 1010 132 984 q 69 1074 69 1036 l 69 1161 q 100 1223 69 1197 q 178 1250 132 1250 l 282 1250 q 357 1223 325 1250 q 389 1161 389 1198 l 389 1074 m 299 1079 l 299 1155 q 275 1175 299 1175 l 185 1175 q 160 1155 160 1175 l 160 1079 q 185 1059 160 1059 l 275 1059 q 299 1079 299 1059 "},"2":{"x_min":-0.671875,"x_max":815.90625,"ha":1019,"o":"m 678 0 l 69 0 q 2 67 2 0 l 0 221 l 0 329 q 168 577 0 545 l 529 576 q 651 644 651 581 q 544 744 659 731 l 145 744 q 10 847 10 744 q 137 949 10 949 l 566 949 q 815 746 815 949 l 815 555 q 578 373 781 406 l 273 373 q 175 301 179 373 l 174 237 q 208 203 174 203 l 678 203 q 814 104 814 203 l 814 101 q 678 0 812 0 "},"¯":{"x_min":0,"x_max":694.5,"ha":695,"o":"m 651 833 l 39 833 q 0 878 0 834 q 39 925 0 921 l 651 925 q 694 881 694 924 q 651 833 694 838 "},"Z":{"x_min":-6.109375,"x_max":879.65625,"ha":1044,"o":"m 785 710 l 297 210 l 773 210 q 879 105 879 210 q 773 0 879 0 l 77 0 q -6 105 -6 0 q 92 281 -6 203 l 536 746 l 100 746 q -2 847 -5 746 q 105 949 0 949 l 792 949 q 875 864 876 949 q 785 710 875 779 "},"u":{"x_min":0,"x_max":883.734375,"ha":1091,"o":"m 0 814 q 103 948 2 948 l 104 948 q 202 812 206 947 l 202 303 q 304 202 202 203 l 574 204 q 680 308 680 202 l 678 814 q 783 949 680 949 q 883 819 883 949 l 883 204 q 831 70 883 138 q 710 2 778 2 l 168 2 q 51 68 101 2 q 2 203 2 135 l 0 814 "},"˜":{"x_min":69.171875,"x_max":694.5,"ha":764,"o":"m 694 1076 q 486 984 579 984 q 381 1030 440 984 q 278 1076 323 1076 q 69 984 185 1076 l 69 1122 q 278 1215 186 1215 q 381 1168 323 1215 q 486 1122 440 1122 q 694 1215 577 1122 l 694 1076 "},"k":{"x_min":0,"x_max":844.390625,"ha":1041,"o":"m 101 949 q 203 847 203 949 l 203 101 q 101 0 203 0 q 0 108 0 0 l 0 847 q 101 949 0 949 m 695 949 q 758 966 729 966 q 813 949 788 966 q 844 884 844 929 q 830 813 844 854 l 526 477 l 830 135 q 842 92 842 113 q 796 16 842 50 q 744 0 774 0 q 593 67 683 0 l 322 373 q 322 576 220 474 l 695 949 "},"ˇ":{"x_min":84.09375,"x_max":522.90625,"ha":764,"o":"m 402 1009 q 311 980 371 980 q 220 1009 250 980 l 99 1140 q 84 1176 84 1159 q 99 1208 84 1193 q 132 1221 112 1221 q 189 1201 156 1221 l 280 1100 q 341 1100 311 1070 l 417 1201 q 474 1221 450 1221 q 507 1208 494 1221 q 522 1176 522 1193 q 507 1140 522 1159 l 402 1009 "},"":{"x_min":69.171875,"x_max":625.328125,"ha":695,"o":"m 625 312 q 596 254 625 277 q 527 231 567 231 l 166 231 q 97 254 127 231 q 69 312 69 277 l 69 614 q 97 671 69 647 q 166 695 127 695 l 527 695 q 596 671 567 695 q 625 614 625 647 l 625 312 "},"s":{"x_min":-6.78125,"x_max":822,"ha":1010,"o":"m 707 949 q 816 851 816 949 q 704 754 816 754 l 312 754 q 210 678 210 754 q 305 585 210 585 l 571 585 q 747 530 673 585 q 822 344 822 474 l 822 242 q 747 50 822 101 q 559 0 673 0 l 96 0 q 1 100 1 0 q 104 204 1 201 l 505 204 q 612 305 613 204 q 491 398 612 400 l 162 398 q 38 471 81 400 q -6 632 -4 542 l -6 730 q 44 886 -6 823 q 160 949 96 949 l 707 949 "},"B":{"x_min":0,"x_max":862.015625,"ha":1044,"o":"m 862 281 q 804 68 862 136 q 584 2 746 0 l 106 0 q 0 105 0 0 l 0 542 q 102 678 2 678 q 201 542 203 678 l 202 198 l 542 198 q 649 286 649 198 q 541 374 649 374 l 406 373 q 269 474 267 373 q 406 576 271 576 l 542 576 q 650 660 649 575 q 549 746 651 746 l 101 746 q 0 843 0 746 q 106 949 0 949 l 577 949 q 779 881 712 949 q 854 678 847 813 q 769 482 854 535 q 862 281 862 423 "},"…":{"x_min":69.1875,"x_max":883.046875,"ha":986,"o":"m 169 0 q 69 101 69 0 q 170 204 69 203 q 271 101 271 203 q 172 0 271 0 l 169 0 m 474 0 q 374 101 374 0 q 476 203 374 202 q 577 101 577 202 q 477 0 577 0 l 474 0 m 780 0 q 680 101 680 0 q 782 203 680 202 q 883 101 883 202 q 783 0 883 0 l 780 0 "},"?":{"x_min":69.171875,"x_max":756.21875,"ha":1042,"o":"m 756 681 q 684 490 756 573 q 513 408 612 408 l 343 408 q 317 401 328 408 q 297 384 305 395 q 285 335 288 373 q 199 292 281 296 q 122 391 117 289 q 193 512 122 436 q 365 590 266 590 l 503 590 q 547 610 529 590 q 566 658 566 631 q 547 706 566 685 q 470 741 523 742 l 196 741 q 69 847 69 739 q 196 954 69 954 l 513 954 q 683 870 611 954 q 756 681 756 787 m 286 6 q 209 -22 247 -22 q 136 6 172 -22 q 136 158 86 84 q 286 158 208 214 q 286 6 329 84 "},"H":{"x_min":0,"x_max":853.875,"ha":1050,"o":"m 853 168 q 746 0 849 0 q 644 168 644 0 l 644 370 l 406 370 q 305 474 305 373 q 406 576 305 576 l 644 576 l 644 812 q 748 959 643 959 q 853 813 853 959 l 853 168 m 203 135 q 101 0 203 0 q 0 135 0 0 l 0 813 q 101 949 0 949 q 203 813 203 949 l 203 135 "},"c":{"x_min":0,"x_max":914.921875,"ha":1050,"o":"m 808 0 l 305 0 q 89 88 180 0 q 0 300 0 176 l 0 660 q 89 871 0 783 q 288 950 169 950 q 316 949 302 950 l 738 949 q 843 844 843 949 q 738 738 843 738 l 347 738 q 210 607 210 738 l 210 326 q 355 210 210 210 l 808 210 q 914 106 914 210 l 914 105 q 808 0 914 0 "},"":{"x_min":69.171875,"x_max":694.5,"ha":764,"o":"m 694 1076 q 486 984 579 984 q 381 1030 440 984 q 278 1076 323 1076 q 69 984 185 1076 l 69 1122 q 278 1215 186 1215 q 381 1168 323 1215 q 486 1122 440 1122 q 694 1215 577 1122 l 694 1076 "},"•":{"x_min":69.171875,"x_max":625.328125,"ha":695,"o":"m 625 312 q 596 254 625 277 q 527 231 567 231 l 166 231 q 97 254 127 231 q 69 312 69 277 l 69 614 q 97 671 69 647 q 166 695 127 695 l 527 695 q 596 671 567 695 q 625 614 625 647 l 625 312 "},"(":{"x_min":0,"x_max":339.109375,"ha":543,"o":"m 172 1051 q 235 1074 201 1074 q 293 1059 263 1074 q 339 984 339 1037 q 327 923 339 957 q 327 42 56 516 q 337 -10 337 12 q 276 -93 337 -69 q 235 -101 255 -101 q 124 -25 174 -101 q 0 470 0 223 q 172 1051 0 762 "},"U":{"x_min":0,"x_max":883.734375,"ha":1091,"o":"m 0 814 q 103 948 2 948 l 104 948 q 202 812 206 947 l 202 303 q 304 202 202 203 l 574 204 q 680 308 680 202 l 678 814 q 783 949 680 949 q 883 819 883 949 l 883 204 q 831 70 883 138 q 710 2 778 2 l 168 2 q 51 68 101 2 q 2 203 2 135 l 0 814 "},"F":{"x_min":0,"x_max":813.875,"ha":983,"o":"m 101 949 l 712 949 q 813 847 813 949 q 712 746 813 746 l 271 746 q 203 678 203 746 l 203 101 q 101 0 203 0 q 0 101 0 0 l 0 841 q 101 949 0 949 m 406 576 l 610 576 q 712 474 712 576 q 610 373 712 373 l 406 373 q 305 474 305 373 q 406 576 305 576 "},"­":{"x_min":69.171875,"x_max":807.078125,"ha":834,"o":"m 706 373 l 169 373 q 69 475 69 373 q 169 577 69 577 l 706 577 q 807 475 807 577 q 706 373 807 373 "},":":{"x_min":-0.671875,"x_max":203.46875,"ha":406,"o":"m 181 18 q 105 -10 142 -10 q 31 18 67 -10 q 7 96 7 58 q 31 170 7 134 q 181 170 103 226 q 203 96 203 134 q 181 18 203 58 m 172 524 q 23 524 94 464 q 0 601 0 563 q 23 676 0 639 q 96 704 59 704 q 172 676 134 704 q 194 600 194 638 q 172 524 194 562 "},"*":{"x_min":88.171875,"x_max":902.046875,"ha":1040,"o":"m 562 619 q 494 524 562 525 q 427 617 427 524 l 427 685 q 495 779 427 779 l 495 779 q 562 687 562 779 l 562 619 m 325 576 q 359 474 359 542 q 325 373 359 406 l 179 237 q 103 237 137 203 q 88 274 88 252 q 111 339 88 301 l 223 440 q 223 508 257 474 l 111 593 q 88 657 88 630 q 103 695 88 680 q 179 695 137 729 l 325 576 m 664 576 l 811 695 q 887 695 853 729 q 902 657 902 680 q 878 593 902 630 l 766 508 q 766 440 732 474 l 878 339 q 902 274 902 301 q 887 237 902 252 q 811 237 853 203 l 664 373 q 630 474 630 406 q 664 576 630 542 m 562 229 q 495 135 562 136 l 493 135 q 427 228 427 135 l 427 296 q 494 390 427 389 q 562 297 562 391 l 562 229 "},"°":{"x_min":69,"x_max":389,"ha":458,"o":"m 389 750 q 357 686 389 712 q 282 660 325 660 l 178 660 q 100 686 132 660 q 69 750 69 712 l 69 837 q 100 900 69 874 q 178 926 132 926 l 282 926 q 357 900 325 926 q 389 837 389 875 l 389 750 m 299 755 l 299 831 q 275 851 299 851 l 185 851 q 160 831 160 851 l 160 755 q 185 735 160 735 l 275 735 q 299 755 299 735 "},"V":{"x_min":-66.46875,"x_max":1062.765625,"ha":1190,"o":"m -44 769 q -66 853 -66 817 q -18 938 -66 908 q 37 955 9 955 q 141 893 89 955 l 575 199 q 564 22 657 84 q 497 0 529 0 q 389 68 440 0 l -44 769 m 598 490 l 864 900 q 954 956 908 956 q 1008 937 981 956 q 1062 839 1062 900 q 1055 792 1062 817 l 784 367 q 630 313 718 247 q 598 490 543 378 "}," ":{"x_min":0,"x_max":0,"ha":559},"":{"x_min":69.1875,"x_max":295.71875,"ha":555,"o":"m 97 564 l 219 663 q 252 677 237 677 q 282 663 268 677 q 295 632 295 650 q 276 578 295 609 l 182 507 q 182 451 153 479 l 276 366 q 295 311 295 335 q 282 281 295 293 q 252 267 268 267 q 219 281 237 267 l 97 394 q 69 479 69 422 q 97 564 69 535 "},"0":{"x_min":1.359375,"x_max":883.046875,"ha":1087,"o":"m 881 199 q 815 67 883 135 q 679 0 747 0 l 204 0 q 69 67 137 0 q 1 203 1 135 l 2 742 q 69 881 1 813 q 204 949 137 949 l 679 949 q 815 881 747 949 q 883 746 883 813 l 881 199 m 679 305 l 679 644 q 577 746 679 746 l 306 746 q 204 642 204 746 l 204 305 q 306 203 202 202 l 577 203 q 679 305 679 203 "},"”":{"x_min":69.171875,"x_max":529.6875,"ha":667,"o":"m 204 847 l 204 712 q 137 644 204 644 q 69 712 69 644 l 69 847 q 136 915 69 915 q 204 847 204 915 m 529 849 l 529 713 q 461 645 529 645 q 394 713 394 645 l 394 849 q 461 916 394 916 q 529 849 529 916 "},"@":{"x_min":-69.859375,"x_max":1117.03125,"ha":1315,"o":"m 303 0 q 167 101 167 0 q 235 169 167 169 q 303 135 303 169 l 913 135 q 983 182 983 145 l 981 746 q 896 864 981 813 q 608 779 811 915 l 167 474 q 63 354 65 406 l 61 300 q -2 203 65 203 q -69 305 -69 203 l -69 373 q 58 553 -69 440 l 668 960 q 841 1007 760 1007 q 981 966 915 1007 q 1117 759 1117 881 l 1117 169 q 1057 33 1117 67 q 921 0 998 0 l 303 0 m 303 271 q 218 288 235 237 q 269 373 201 339 l 744 683 q 813 709 783 718 q 843 649 843 701 l 843 309 q 744 237 843 237 l 574 237 l 573 236 q 507 288 507 238 q 575 345 507 339 l 724 345 l 724 526 l 303 271 "},"i":{"x_min":1.359375,"x_max":207.546875,"ha":375,"o":"m 207 135 q 105 0 207 0 q 1 135 4 0 l 1 813 q 105 949 4 949 q 207 813 207 949 l 207 135 "},"]":{"x_min":69.171875,"x_max":508.671875,"ha":555,"o":"m 138 -114 q 69 -33 69 -101 q 138 57 69 33 l 339 57 l 339 868 l 138 868 q 69 966 69 881 q 125 1042 69 1042 q 138 1041 131 1042 l 440 1041 q 456 1043 448 1043 q 508 986 508 1043 l 508 -34 q 442 -114 508 -101 l 138 -114 "},"m":{"x_min":-63.078125,"x_max":1517.859375,"ha":1723,"o":"m 699 904 q 800 950 754 950 q 832 944 817 950 q 890 823 891 922 l 890 116 q 788 -4 888 -4 l 786 -4 q 685 119 687 -4 l 684 537 q 647 565 682 598 l 128 46 q 30 -4 75 -4 q -33 25 -4 -4 q -63 89 -63 54 q -12 189 -63 135 l 699 904 m 1455 946 q 1517 822 1517 923 l 1517 132 q 1416 -3 1517 -3 q 1314 132 1314 -3 l 1314 539 q 1275 549 1313 581 l 1142 414 q 988 419 1043 345 q 1012 578 933 493 l 1332 902 q 1424 951 1377 951 q 1455 946 1439 951 "},"8":{"x_min":0,"x_max":876.9375,"ha":1085,"o":"m 876 268 q 801 79 876 160 q 624 0 727 0 l 252 0 q 75 79 149 0 q 0 268 0 160 q 113 510 0 444 q 0 682 0 576 q 75 870 0 791 q 252 950 149 950 l 624 950 q 802 870 727 950 q 876 682 876 791 q 763 510 876 575 q 876 268 876 444 m 676 680 q 657 736 676 712 q 611 761 637 761 l 271 761 q 225 736 245 761 q 206 680 206 712 q 225 626 206 651 q 271 601 245 601 l 611 601 q 657 626 637 601 q 676 680 676 651 m 676 337 q 657 387 676 366 q 611 408 637 408 l 271 408 q 225 387 245 408 q 206 337 206 366 q 225 217 206 238 q 271 196 245 196 l 611 196 q 657 217 637 196 q 676 337 676 238 "},"R":{"x_min":1.359375,"x_max":843.71875,"ha":1021,"o":"m 101 949 l 606 949 q 777 898 712 949 q 843 746 843 847 l 843 576 q 733 429 843 470 q 631 356 582 407 q 809 169 680 305 q 839 89 839 124 q 792 16 839 45 q 738 0 764 0 q 640 67 685 0 l 375 339 q 290 525 274 474 q 341 576 307 576 l 606 576 q 660 671 672 596 q 606 746 649 746 l 104 746 q 1 847 2 746 l 1 850 q 101 949 1 949 m 2 508 q 104 644 2 644 q 206 508 206 644 l 206 101 q 104 0 206 0 q 2 101 2 0 l 2 508 "},"×":{"x_min":88.15625,"x_max":706.703125,"ha":786,"o":"m 325 576 q 359 474 359 542 q 325 373 359 406 l 179 237 q 139 220 158 220 q 103 237 120 220 q 88 274 88 252 q 111 339 88 301 l 223 440 q 223 508 257 474 l 111 593 q 88 657 88 630 q 103 695 88 680 q 139 712 120 712 q 179 695 158 712 l 325 576 m 469 576 l 615 695 q 655 712 636 712 q 691 695 674 712 q 706 657 706 680 q 683 593 706 630 l 571 508 q 571 440 537 474 l 683 339 q 706 274 706 301 q 691 237 706 252 q 655 220 674 220 q 615 237 636 220 l 469 373 q 435 474 435 406 q 469 576 435 542 "},"o":{"x_min":1.359375,"x_max":883.046875,"ha":1087,"o":"m 881 199 q 815 67 883 135 q 679 0 747 0 l 204 0 q 69 67 137 0 q 1 203 1 135 l 2 742 q 69 881 1 813 q 204 949 137 949 l 679 949 q 815 881 747 949 q 883 746 883 813 l 881 199 m 679 305 l 679 644 q 577 746 679 746 l 306 746 q 204 642 204 746 l 204 305 q 306 203 202 202 l 577 203 q 679 305 679 203 "},"5":{"x_min":0,"x_max":816.578125,"ha":1018,"o":"m 679 949 q 815 847 813 949 l 815 845 q 679 746 815 746 l 209 746 q 175 712 175 746 l 176 661 q 274 589 179 589 l 579 589 q 816 406 782 555 l 816 203 q 567 0 816 0 l 134 0 q 10 102 10 0 q 142 204 10 204 l 545 204 q 651 305 659 218 q 530 385 651 381 l 169 385 q 0 632 0 417 l 2 812 q 135 949 2 949 l 679 949 "},"7":{"x_min":-83.421875,"x_max":754.859375,"ha":844,"o":"m 128 67 q 7 -8 77 -8 q -42 0 -16 -8 q -75 76 -75 33 q -42 169 -75 118 l 364 678 q 330 746 432 746 l 25 746 q -83 845 -83 745 q 25 950 -83 946 l 602 949 q 737 932 703 949 q 754 902 754 924 q 737 847 754 881 l 128 67 "},"K":{"x_min":0,"x_max":844.390625,"ha":1041,"o":"m 101 949 q 203 847 203 949 l 203 101 q 101 0 203 0 q 0 108 0 0 l 0 847 q 101 949 0 949 m 695 949 q 758 966 729 966 q 813 949 788 966 q 844 884 844 929 q 830 813 844 854 l 526 477 l 830 135 q 842 92 842 113 q 796 16 842 50 q 744 0 774 0 q 593 67 683 0 l 322 373 q 322 576 220 474 l 695 949 "},",":{"x_min":69.171875,"x_max":204.828125,"ha":347,"o":"m 204 96 l 204 -39 q 137 -107 204 -107 q 69 -39 69 -107 l 69 96 q 137 164 69 164 q 204 96 204 164 "},"d":{"x_min":0,"x_max":847.78125,"ha":1049,"o":"m 101 949 l 542 949 q 746 847 644 949 q 847 610 847 746 l 847 305 q 746 101 847 203 q 511 0 644 0 l 101 0 q 0 101 0 0 l 0 508 q 101 644 0 644 q 203 508 203 644 l 203 203 l 542 203 q 644 373 644 237 l 644 576 q 508 746 644 712 l 101 746 q 0 847 0 746 q 101 949 0 949 "},"E":{"x_min":0,"x_max":813.875,"ha":984,"o":"m 101 949 l 712 949 q 813 847 813 949 q 712 746 813 746 l 271 746 q 203 678 203 746 l 203 271 q 271 203 203 203 l 712 203 q 813 101 813 203 q 712 0 813 0 l 101 0 q 0 101 0 0 l 0 841 q 101 949 0 949 m 406 576 l 576 576 q 712 474 712 576 q 576 373 712 373 l 406 373 q 271 474 271 373 q 406 576 271 576 "},"Y":{"x_min":-4.078125,"x_max":944.765625,"ha":1106,"o":"m 9 813 q -4 865 -4 841 q 26 932 -4 902 q 81 954 48 954 q 181 918 123 954 l 537 542 q 571 440 571 508 l 571 101 q 470 0 571 0 q 368 101 368 0 l 368 440 l 9 813 m 760 621 q 623 622 680 559 q 631 771 567 685 l 793 935 q 849 949 823 949 q 914 925 885 949 q 944 857 944 899 q 930 791 944 828 l 760 621 "},"\"":{"x_min":69.171875,"x_max":529.6875,"ha":667,"o":"m 204 847 l 204 712 q 137 644 204 644 q 69 712 69 644 l 69 847 q 136 915 69 915 q 204 847 204 915 m 529 849 l 529 713 q 461 645 529 645 q 394 713 394 645 l 394 849 q 461 916 394 916 q 529 849 529 916 "},"‹":{"x_min":69.1875,"x_max":295.71875,"ha":555,"o":"m 97 564 l 219 663 q 252 677 237 677 q 282 663 268 677 q 295 632 295 650 q 276 578 295 609 l 182 507 q 182 451 153 479 l 276 366 q 295 311 295 335 q 282 281 295 293 q 252 267 268 267 q 219 281 237 267 l 97 394 q 69 479 69 422 q 97 564 69 535 "},"„":{"x_min":69.171875,"x_max":529.6875,"ha":667,"o":"m 204 110 l 204 -24 q 137 -92 204 -92 q 69 -24 69 -92 l 69 110 q 136 178 69 178 q 204 110 204 178 m 529 111 l 529 -23 q 461 -90 529 -90 q 394 -23 394 -90 l 394 111 q 461 179 394 179 q 529 111 529 179 "},"´":{"x_min":92.234375,"x_max":347.25,"ha":486,"o":"m 189 896 q 259 949 215 949 q 305 936 280 949 q 347 885 347 916 q 315 823 347 857 l 213 714 q 152 685 184 685 q 119 693 136 685 q 92 727 92 705 q 111 771 92 746 l 189 896 "},"±":{"x_min":51.546875,"x_max":783.34375,"ha":816,"o":"m 687 0 l 158 0 q 62 102 62 0 q 158 204 62 204 l 687 204 q 783 102 783 204 q 687 0 783 0 m 631 495 l 505 495 l 505 407 q 407 271 505 271 q 309 407 309 271 l 309 495 l 166 495 q 51 596 51 495 q 166 697 51 697 l 309 697 l 309 779 q 407 900 309 900 q 505 779 505 900 l 505 697 l 631 697 q 763 596 763 697 q 631 495 763 495 "},"|":{"x_min":69.1875,"x_max":275.359375,"ha":347,"o":"m 275 60 q 173 -105 275 -105 q 69 60 71 -105 l 69 885 q 173 1051 71 1051 q 275 885 275 1051 l 275 60 "},"b":{"x_min":0,"x_max":862.015625,"ha":1044,"o":"m 862 281 q 804 68 862 136 q 584 2 746 0 l 106 0 q 0 105 0 0 l 0 542 q 102 678 2 678 q 201 542 203 678 l 202 198 l 542 198 q 649 286 649 198 q 541 374 649 374 l 406 373 q 269 474 267 373 q 406 576 271 576 l 542 576 q 650 660 649 575 q 549 746 651 746 l 101 746 q 0 843 0 746 q 106 949 0 949 l 577 949 q 779 881 712 949 q 854 678 847 813 q 769 482 854 535 q 862 281 862 423 "},"q":{"x_min":0,"x_max":962.390625,"ha":1085,"o":"m 881 472 q 779 337 881 337 q 678 472 678 337 l 678 644 q 610 746 674 746 l 271 746 q 203 644 204 746 l 203 303 q 272 207 204 207 l 414 207 q 513 101 513 203 q 411 0 513 0 l 162 0 q 50 50 101 0 q 0 175 0 101 l 0 773 q 50 898 0 847 q 162 949 101 949 l 714 949 q 830 898 779 949 q 881 779 881 847 l 881 472 m 784 4 l 499 219 q 475 356 411 282 q 627 366 539 430 l 911 151 q 962 74 962 114 q 935 14 962 45 q 859 -24 901 -24 q 784 4 824 -24 "},"z":{"x_min":-6.109375,"x_max":879.65625,"ha":1044,"o":"m 785 710 l 297 210 l 773 210 q 879 105 879 210 q 773 0 879 0 l 77 0 q -6 105 -6 0 q 92 281 -6 203 l 536 746 l 100 746 q -2 847 -5 746 q 105 949 0 949 l 792 949 q 875 864 876 949 q 785 710 875 779 "},"~":{"x_min":69.171875,"x_max":861.34375,"ha":931,"o":"m 861 683 q 597 567 713 567 q 465 624 539 567 q 333 683 390 683 q 69 567 216 683 l 69 752 q 333 868 216 868 q 465 809 390 868 q 597 752 539 752 q 861 868 713 752 l 861 683 "},"[":{"x_min":70.53125,"x_max":510.03125,"ha":566,"o":"m 440 -114 l 137 -114 q 70 -34 70 -101 l 70 986 q 122 1043 70 1043 q 139 1041 130 1043 l 440 1041 q 453 1042 447 1042 q 510 966 510 1042 q 440 868 510 881 l 240 868 l 240 57 l 440 57 q 510 -33 510 33 q 440 -114 510 -101 "},"":{"x_min":69.171875,"x_max":529.6875,"ha":667,"o":"m 204 110 l 204 -24 q 137 -92 204 -92 q 69 -24 69 -92 l 69 110 q 136 178 69 178 q 204 110 204 178 m 529 111 l 529 -23 q 461 -90 529 -90 q 394 -23 394 -90 l 394 111 q 461 179 394 179 q 529 111 529 179 "},"":{"x_min":69.171875,"x_max":1102.109375,"ha":1219,"o":"m 961 373 l 210 373 q 69 475 69 373 q 210 577 69 577 l 961 577 q 1102 475 1102 577 q 961 373 1102 373 "},"L":{"x_min":0,"x_max":754.1875,"ha":950,"o":"m 0 815 q 101 950 0 950 q 203 814 203 950 l 203 271 q 271 203 203 203 l 614 203 q 754 104 753 204 l 754 103 q 614 0 754 4 l 158 0 q 0 166 0 0 l 0 815 "}," ":{"x_min":0,"x_max":0,"ha":559},"%":{"x_min":69.171875,"x_max":1459.53125,"ha":1528,"o":"m 1123 1038 q 1203 1082 1161 1082 q 1277 1051 1239 1082 q 1294 881 1362 983 l 345 -113 q 271 -135 304 -135 q 192 -84 223 -135 q 209 67 141 0 l 1123 1038 m 655 741 q 598 625 655 673 q 460 576 539 576 l 269 576 q 128 625 185 576 q 69 741 69 673 l 69 901 q 127 1017 69 969 q 269 1064 186 1064 l 460 1064 q 598 1017 539 1064 q 655 901 655 971 l 655 741 m 490 752 l 490 890 q 447 926 490 926 l 282 926 q 236 890 236 926 l 236 752 q 282 714 236 714 l 447 714 q 490 752 490 714 m 1459 29 q 1402 -86 1459 -37 q 1264 -135 1343 -135 l 1073 -135 q 931 -86 988 -135 q 872 29 872 -37 l 872 189 q 931 305 872 257 q 1073 352 990 352 l 1264 352 q 1402 305 1343 352 q 1459 189 1459 259 l 1459 29 m 1294 40 l 1294 178 q 1251 214 1294 214 l 1085 214 q 1039 178 1039 214 l 1039 40 q 1085 2 1039 2 l 1251 2 q 1294 40 1294 2 "},"P":{"x_min":2.71875,"x_max":850.5,"ha":1056,"o":"m 172 949 l 647 949 q 782 883 714 949 q 850 712 850 817 l 850 610 q 782 456 849 539 q 613 373 714 373 l 375 370 q 309 476 307 370 q 379 581 311 581 l 577 581 q 643 663 645 581 q 574 745 642 745 l 309 746 q 224 710 241 746 q 207 604 207 674 l 207 109 q 105 0 207 0 q 2 105 2 0 l 2 738 q 36 898 2 847 q 172 949 70 949 "},"_":{"x_min":0,"x_max":746.046875,"ha":695,"o":"m 644 0 l 101 0 q 0 68 0 0 q 101 136 0 136 l 644 136 q 746 68 746 136 q 644 0 746 0 "},"+":{"x_min":69.1875,"x_max":780.640625,"ha":834,"o":"m 649 359 l 523 359 l 523 271 q 425 135 523 135 q 327 271 327 135 l 327 359 l 185 359 q 69 460 69 359 q 185 560 69 560 l 327 560 l 327 643 q 425 763 327 763 q 523 643 523 763 l 523 560 l 649 560 q 780 460 780 560 q 649 359 780 359 "},"":{"x_min":69.171875,"x_max":204.8125,"ha":347,"o":"m 204 847 l 204 712 q 137 644 204 644 q 69 712 69 644 l 69 847 q 137 915 69 915 q 204 847 204 915 "},"'":{"x_min":69.171875,"x_max":204.8125,"ha":347,"o":"m 204 847 l 204 712 q 137 644 204 644 q 69 712 69 644 l 69 847 q 137 915 69 915 q 204 847 204 915 "},"":{"x_min":84.78125,"x_max":311.3125,"ha":555,"o":"m 282 564 q 311 479 311 535 q 282 394 311 422 l 160 281 q 126 267 143 267 q 97 281 111 267 q 84 311 84 293 q 104 366 84 334 l 198 451 q 198 507 226 479 l 104 578 q 84 632 84 609 q 97 663 84 650 q 127 677 111 677 q 160 663 143 677 l 282 564 "},"T":{"x_min":-54.265625,"x_max":828.78125,"ha":929,"o":"m 727 949 q 828 851 828 949 q 727 746 828 750 l 47 746 q -54 847 -54 750 q 47 949 -54 953 l 727 949 m 284 542 q 394 677 282 676 q 507 542 507 678 l 507 135 q 396 0 501 0 l 394 0 q 284 135 281 1 l 284 542 "},"j":{"x_min":0,"x_max":746.046875,"ha":950,"o":"m 746 279 q 678 101 746 203 q 486 0 576 0 l 101 0 q 0 101 0 0 q 101 203 0 203 l 440 203 q 509 227 481 203 q 542 271 537 250 l 542 847 q 644 949 542 949 q 746 847 746 949 l 746 279 "},"1":{"x_min":238.734375,"x_max":444.921875,"ha":677,"o":"m 444 135 q 343 0 444 0 q 238 135 241 0 l 238 813 q 343 949 241 949 q 444 813 444 949 l 444 135 "},"›":{"x_min":84.78125,"x_max":311.3125,"ha":555,"o":"m 282 564 q 311 479 311 535 q 282 394 311 422 l 160 281 q 126 267 143 267 q 97 281 111 267 q 84 311 84 293 q 104 366 84 334 l 198 451 q 198 507 226 479 l 104 578 q 84 632 84 609 q 97 663 84 650 q 127 677 111 677 q 160 663 143 677 l 282 564 "},"<":{"x_min":69.1875,"x_max":402.1875,"ha":695,"o":"m 110 588 l 290 733 q 339 754 316 754 q 383 733 363 754 q 402 688 402 715 q 373 609 402 655 l 236 504 q 236 421 193 463 l 373 297 q 402 217 402 250 q 383 172 402 190 q 339 151 362 151 q 290 171 316 151 l 110 338 q 69 463 69 379 q 110 588 69 546 "},"t":{"x_min":-54.265625,"x_max":828.78125,"ha":929,"o":"m 727 949 q 828 851 828 949 q 727 746 828 750 l 47 746 q -54 847 -54 750 q 47 949 -54 953 l 727 949 m 284 542 q 394 677 282 676 q 507 542 507 678 l 507 135 q 396 0 501 0 l 394 0 q 284 135 281 1 l 284 542 "},"W":{"x_min":-4.75,"x_max":1576.859375,"ha":1623,"o":"m 813 41 q 712 -4 759 -4 q 680 1 696 -4 q 622 122 621 23 l 622 829 q 725 951 624 950 l 726 951 q 828 826 825 951 l 828 408 q 865 380 830 347 l 1384 900 q 1482 951 1437 951 q 1547 921 1517 951 q 1576 856 1576 891 q 1525 756 1576 810 l 813 41 m 57 0 q -4 123 -4 22 l -4 813 q 96 949 -4 949 q 198 813 198 949 l 198 406 q 238 396 199 364 l 370 531 q 524 526 469 600 q 500 367 579 453 l 181 43 q 88 -4 135 -4 q 57 0 73 -4 "},">":{"x_min":92.234375,"x_max":425.921875,"ha":695,"o":"m 383 588 q 425 463 425 546 q 383 338 425 379 l 204 171 q 155 151 178 151 q 111 172 131 151 q 92 217 92 190 q 120 297 92 250 l 259 421 q 259 504 300 463 l 120 609 q 92 688 92 655 q 111 733 92 715 q 155 754 131 754 q 204 733 178 754 l 383 588 "},"v":{"x_min":-66.46875,"x_max":1062.765625,"ha":1190,"o":"m -44 769 q -66 853 -66 817 q -18 938 -66 908 q 37 955 9 955 q 141 893 89 955 l 575 199 q 564 22 657 84 q 497 0 529 0 q 389 68 440 0 l -44 769 m 598 490 l 864 900 q 954 956 908 956 q 1008 937 981 956 q 1062 839 1062 900 q 1055 792 1062 817 l 784 367 q 630 313 718 247 q 598 490 543 378 "},"&":{"x_min":69.171875,"x_max":983.421875,"ha":1111,"o":"m 983 203 q 779 0 983 0 l 388 0 q 164 77 258 0 q 69 261 69 155 q 134 463 69 398 q 69 664 69 527 q 164 848 69 771 q 388 925 258 925 l 746 924 q 849 812 849 914 q 746 712 849 710 l 339 712 q 280 691 305 712 q 257 644 257 672 q 281 576 257 597 q 340 555 306 555 l 712 555 q 983 305 983 542 l 983 203 m 712 203 q 779 271 779 203 q 678 373 779 370 l 340 370 q 281 349 306 370 q 257 301 257 328 q 281 224 257 245 q 340 203 306 203 l 712 203 "},"I":{"x_min":1.359375,"x_max":207.546875,"ha":375,"o":"m 207 135 q 105 0 207 0 q 1 135 4 0 l 1 813 q 105 949 4 949 q 207 813 207 949 l 207 135 "},"G":{"x_min":0,"x_max":915.59375,"ha":1052,"o":"m 510 0 l 271 0 q 67 67 135 0 q 0 271 0 135 l 0 678 q 67 881 0 813 q 271 949 135 949 l 746 949 q 876 847 876 949 q 746 746 876 746 l 297 746 q 203 644 203 746 l 203 305 q 305 204 203 204 l 508 204 q 611 102 611 204 q 510 0 611 0 m 512 575 l 750 575 q 914 406 915 575 l 915 104 q 798 0 915 0 q 710 104 710 0 l 710 302 q 642 372 710 372 l 508 372 q 408 473 406 372 q 512 575 410 575 "},"ˉ":{"x_min":69.171875,"x_max":793.515625,"ha":834,"o":"m 695 700 l 168 700 q 69 803 69 700 q 168 904 69 904 l 695 904 q 793 803 793 904 q 695 700 793 700 "},"`":{"x_min":105.125,"x_max":360.140625,"ha":486,"o":"m 263 896 l 340 771 q 360 727 360 746 q 333 693 360 705 q 299 685 316 685 q 238 714 267 685 l 137 823 q 105 885 105 857 q 146 936 105 916 q 193 949 172 949 q 263 896 236 949 "},"·":{"x_min":94.28125,"x_max":290.28125,"ha":347,"o":"m 268 377 q 191 348 229 348 q 118 377 154 348 q 94 455 94 417 q 118 529 94 493 q 191 557 154 557 q 268 529 229 557 q 290 455 290 493 q 268 377 290 417 "},"r":{"x_min":1.359375,"x_max":843.71875,"ha":1021,"o":"m 101 949 l 606 949 q 777 898 712 949 q 843 746 843 847 l 843 576 q 733 429 843 470 q 631 356 582 407 q 809 169 680 305 q 839 89 839 124 q 792 16 839 45 q 738 0 764 0 q 640 67 685 0 l 375 339 q 290 525 274 474 q 341 576 307 576 l 606 576 q 660 671 672 596 q 606 746 649 746 l 104 746 q 1 847 2 746 l 1 850 q 101 949 1 949 m 2 508 q 104 644 2 644 q 206 508 206 644 l 206 101 q 104 0 206 0 q 2 101 2 0 l 2 508 "},"x":{"x_min":-2.03125,"x_max":945.453125,"ha":1114,"o":"m 754 905 q 847 950 805 950 q 915 918 884 950 q 945 849 945 885 q 902 755 945 805 l 187 32 q 93 0 134 0 q 22 39 49 0 q 3 94 3 65 q 63 205 3 146 l 754 905 m 29 758 q -2 832 -2 794 q 29 908 -2 870 q 99 948 62 948 q 177 912 135 948 l 312 778 q 321 614 389 691 q 172 617 252 537 l 29 758 m 647 161 q 629 323 569 248 q 784 315 689 398 l 900 196 q 937 115 937 157 q 912 45 937 81 q 847 3 883 3 q 771 39 812 3 l 647 161 "},"÷":{"x_min":69.171875,"x_max":815.21875,"ha":894,"o":"m 713 373 l 170 373 q 69 475 69 373 q 170 577 69 577 l 713 577 q 815 475 815 577 q 713 373 815 373 m 442 643 q 320 745 320 643 q 442 848 320 847 q 564 745 564 847 q 442 643 564 643 m 455 100 q 333 202 333 100 q 455 305 333 304 q 577 202 577 304 q 455 100 577 100 "},"h":{"x_min":0,"x_max":853.875,"ha":1050,"o":"m 853 168 q 746 0 849 0 q 644 168 644 0 l 644 370 l 406 370 q 305 474 305 373 q 406 576 305 576 l 644 576 l 644 812 q 748 959 643 959 q 853 813 853 959 l 853 168 m 203 135 q 101 0 203 0 q 0 135 0 0 l 0 813 q 101 949 0 949 q 203 813 203 949 l 203 135 "},".":{"x_min":-29.84375,"x_max":166.171875,"ha":273,"o":"m 144 25 q 67 -3 105 -3 q -5 25 30 -3 q -29 103 -29 65 q -5 177 -29 141 q 67 205 30 205 q 144 177 105 205 q 166 103 166 141 q 144 25 166 65 "},";":{"x_min":-1.359375,"x_max":194.640625,"ha":297,"o":"m 170 103 l 170 -31 q 102 -99 170 -99 q 34 -31 34 -99 l 34 103 q 102 171 34 171 q 170 103 170 171 m 172 526 q 23 526 94 466 q -1 603 -1 565 q 23 678 -1 641 q 96 706 59 706 q 172 678 134 706 q 194 602 194 640 q 172 526 194 564 "},"f":{"x_min":0,"x_max":813.875,"ha":983,"o":"m 101 949 l 712 949 q 813 847 813 949 q 712 746 813 746 l 271 746 q 203 678 203 746 l 203 101 q 101 0 203 0 q 0 101 0 0 l 0 841 q 101 949 0 949 m 406 576 l 610 576 q 712 474 712 576 q 610 373 712 373 l 406 373 q 305 474 305 373 q 406 576 305 576 "},"":{"x_min":69.1875,"x_max":883.046875,"ha":986,"o":"m 169 0 q 69 101 69 0 q 170 204 69 203 q 271 101 271 203 q 172 0 271 0 l 169 0 m 474 0 q 374 101 374 0 q 476 203 374 202 q 577 101 577 202 q 477 0 577 0 l 474 0 m 780 0 q 680 101 680 0 q 782 203 680 202 q 883 101 883 202 q 783 0 883 0 l 780 0 "},"“":{"x_min":69.171875,"x_max":529.6875,"ha":667,"o":"m 204 847 l 204 712 q 137 644 204 644 q 69 712 69 644 l 69 847 q 136 915 69 915 q 204 847 204 915 m 529 849 l 529 713 q 461 645 529 645 q 394 713 394 645 l 394 849 q 461 916 394 916 q 529 849 529 916 "},"A":{"x_min":-52.90625,"x_max":916.953125,"ha":1068,"o":"m 457 203 l 714 203 l 712 597 l 120 42 q 46 8 81 8 q -25 52 6 8 q -52 120 -52 87 q -8 202 -52 164 l 727 902 q 825 957 781 957 q 866 954 855 957 q 916 832 916 936 l 916 143 q 748 0 916 -3 l 457 0 q 338 101 338 -4 q 457 203 338 206 "},"6":{"x_min":0,"x_max":883.046875,"ha":1086,"o":"m 883 285 q 808 85 883 172 q 629 0 732 0 l 276 0 q 80 86 162 0 q 0 297 0 174 l 0 653 q 80 862 0 775 q 276 950 161 950 l 720 950 q 828 849 828 946 q 720 744 828 752 l 259 744 q 212 722 232 744 q 193 673 193 702 l 193 663 q 238 611 191 611 l 629 611 q 808 525 733 611 q 883 285 883 439 m 684 274 q 663 400 684 379 q 617 421 644 421 l 193 421 l 193 274 q 198 245 193 259 q 212 223 203 232 q 233 207 221 213 q 259 202 245 202 l 617 202 q 664 223 644 202 q 684 274 684 245 "},"O":{"x_min":1.359375,"x_max":883.046875,"ha":1087,"o":"m 881 199 q 815 67 883 135 q 679 0 747 0 l 204 0 q 69 67 137 0 q 1 203 1 135 l 2 742 q 69 881 1 813 q 204 949 137 949 l 679 949 q 815 881 747 949 q 883 746 883 813 l 881 199 m 679 305 l 679 644 q 577 746 679 746 l 306 746 q 204 642 204 746 l 204 305 q 306 203 202 202 l 577 203 q 679 305 679 203 "},"n":{"x_min":-36.625,"x_max":930.515625,"ha":1061,"o":"m 3 746 q -36 843 -36 799 q -3 915 -36 883 q 67 948 30 948 q 153 908 107 948 l 878 223 q 930 123 930 170 q 902 56 930 88 q 826 17 868 17 q 738 53 786 17 l 3 746 m 911 841 l 911 563 q 791 428 911 428 q 671 563 671 428 l 671 841 q 791 949 671 949 q 911 841 911 949 m 90 543 q 199 399 199 543 l 199 120 q 90 0 199 0 q -19 120 -19 0 l -19 401 q 90 543 -19 543 "},"‘":{"x_min":69.171875,"x_max":204.8125,"ha":347,"o":"m 204 847 l 204 712 q 137 644 204 644 q 69 712 69 644 l 69 847 q 137 915 69 915 q 204 847 204 915 "},"3":{"x_min":0,"x_max":847.78125,"ha":1050,"o":"m 678 949 q 847 779 847 949 l 847 305 q 542 0 847 0 l 101 0 q 0 101 0 0 q 101 203 0 203 l 474 203 q 644 305 644 203 l 644 678 q 576 746 644 746 l 135 746 q 33 847 33 746 q 135 949 33 949 l 678 949 m 413 576 q 549 474 549 576 q 413 373 549 373 l 278 373 q 142 474 142 373 q 278 576 142 576 l 413 576 "},"9":{"x_min":0,"x_max":883.046875,"ha":1084,"o":"m 0 664 q 74 864 0 777 q 253 950 150 950 l 607 950 q 802 863 720 950 q 883 653 883 775 l 883 296 q 802 87 883 174 q 607 0 721 0 l 162 0 q 54 100 54 4 q 162 205 54 197 l 623 205 q 670 227 650 205 q 689 276 689 247 l 689 328 q 644 379 691 379 l 253 379 q 74 466 149 379 q 0 664 0 552 m 198 676 q 219 591 198 612 q 265 570 238 570 l 689 570 l 689 676 q 684 704 689 691 q 670 727 679 717 q 649 742 661 736 q 623 748 637 748 l 265 748 q 218 726 238 748 q 198 676 198 704 "},"l":{"x_min":0,"x_max":754.1875,"ha":950,"o":"m 0 815 q 101 950 0 950 q 203 814 203 950 l 203 271 q 271 203 203 203 l 614 203 q 754 104 753 204 l 754 103 q 614 0 754 4 l 158 0 q 0 166 0 0 l 0 815 "},"4":{"x_min":0,"x_max":846.421875,"ha":1055,"o":"m 749 368 l 749 100 q 647 0 765 0 q 541 100 530 0 l 541 368 l 91 370 q 2 468 2 374 l 0 846 q 105 953 0 953 q 208 846 208 953 l 206 577 l 541 577 l 541 846 q 645 953 541 953 q 749 846 748 953 l 749 577 q 846 474 846 577 q 749 368 846 372 "},"p":{"x_min":2.71875,"x_max":850.5,"ha":1056,"o":"m 172 949 l 647 949 q 782 883 714 949 q 850 712 850 817 l 850 610 q 782 456 849 539 q 613 373 714 373 l 375 370 q 309 476 307 370 q 379 581 311 581 l 577 581 q 643 663 645 581 q 574 745 642 745 l 309 746 q 224 710 241 746 q 207 604 207 674 l 207 109 q 105 0 207 0 q 2 105 2 0 l 2 738 q 36 898 2 847 q 172 949 70 949 "}}}
